# xmcd CD database generated by RipIT
#
# Track frame offsets:
# 150
# 14078
# 33368
# 49244
# 68604
#
# Disc length: 1103 seconds
#
# Revision: 0
# Processed by: cddbd v1.5.2PL0 Copyright (c) Steve Scherf et al.
# Submitted via: RipIT 3.6.0 www.suwald.com/ripit/ripit.html on 2007-11-30 at 00:03
#
DISCID=3d044d05
DTITLE=Lowlands Band - The Lowlands
DYEAR=2006
DGENRE=Folk
TTITLE0=Gamblin'_Soul
TTITLE1=Pack_of_Seeds
TTITLE2=Floating
TTITLE3=Take_Me_Back_Home
TTITLE4=Glory_Bound
EXTD=
EXTT0=
EXTT1=
EXTT2=
EXTT3=
EXTT4=
PLAYORDER=
